<?xml version="1.0" encoding="UTF-8"?>
<svg width="235px" height="107px" viewBox="0 0 235 107" version="1.1" xmlns="http://www.w3.org/2000/svg" xmlns:xlink="http://www.w3.org/1999/xlink">
    <!-- Generator: Sketch 62 (91390) - https://sketch.com -->
    <title>dx 2</title>
    <desc>Created with Sketch.</desc>
    <g id="Page-1" stroke="none" stroke-width="1" fill="none" fill-rule="evenodd">
        <g id="&lt;dx&gt;" transform="translate(0.112195, 0.088780)" fill-rule="nonzero">
            <polygon id="&lt;" fill="#000000" points="29.2214634 105.646829 34.3414634 103.02439 6.74341463 52.8234146 34.8409756 2.74731707 29.4712195 1.42108547e-14 0 52.6985366"></polygon>
            <path d="M78.4243902,92.5346341 C85.9170732,92.5346341 92.3691057,88.8299187 97.7804878,81.4204878 L97.7804878,81.4204878 L97.6556098,90.2868293 C97.6556098,91.2026016 98.196748,91.6604878 99.2790244,91.6604878 C100.444553,91.6604878 102.713171,91.5147967 106.084878,91.2234146 C109.456585,90.9320325 111.974959,90.7863415 113.64,90.7863415 C114.805528,90.7863415 115.388293,90.5365854 115.388293,90.0370732 L115.388293,90.0370732 L115.388293,88.0390244 C115.388293,87.5395122 115.180163,87.2481301 114.763902,87.164878 C114.430894,87.081626 113.556748,87.04 112.141463,87.04 C109.893659,87.04 108.540813,86.8110569 108.082927,86.3531707 C107.625041,85.8952846 107.27122,84.2302439 107.021463,81.3580488 C106.771707,78.4858537 106.646829,74.9268293 106.646829,70.6809756 L106.646829,70.6809756 L106.647274,50.4612472 C106.656918,47.7007069 106.823274,39.4552506 107.146341,25.724878 C107.229593,22.1450407 107.27122,16.7336585 107.27122,9.49073171 C107.27122,8.74146341 106.938211,8.36682927 106.272195,8.36682927 C104.773659,8.6998374 103.295935,8.92878049 101.839024,9.05365854 C100.382114,9.17853659 98.4465041,9.24097561 96.0321951,9.24097561 L96.0321951,9.24097561 L90.0380488,9.24097561 C88.8725203,9.24097561 88.2481301,9.49073171 88.164878,9.9902439 L88.164878,9.9902439 L88.164878,11.8634146 C88.164878,12.5294309 88.7892683,12.862439 90.0380488,12.862439 C93.4513821,12.862439 95.5743089,13.4660163 96.4068293,14.6731707 C97.2393496,15.8803252 97.6556098,19.5226016 97.6556098,25.6 L97.6556098,39.9609756 C94.3255285,38.7121951 91.8487805,37.9629268 90.2253659,37.7131707 C88.6019512,37.4634146 86.7912195,37.3385366 84.7931707,37.3385366 C76.8009756,37.3385366 70.224065,40.1274797 65.062439,45.7053659 C59.900813,51.283252 57.32,58.4013008 57.32,67.0595122 C57.32,74.4689431 59.3180488,80.5671545 63.3141463,85.3541463 C67.3102439,90.1411382 72.3469919,92.5346341 78.4243902,92.5346341 Z M83.4195122,84.7921951 C78.6741463,84.7921951 74.7613008,82.7108943 71.6809756,78.5482927 C68.6006504,74.3856911 67.0604878,69.140813 67.0604878,62.8136585 C67.0604878,56.9860163 68.6839024,51.9908943 71.9307317,47.8282927 C75.177561,43.6656911 79.0487805,41.5843902 83.5443902,41.5843902 C88.123252,41.5843902 91.6198374,43.582439 94.0341463,47.5785366 C96.4484553,51.5746341 97.6556098,57.3190244 97.6556098,64.8117073 L97.6556098,64.8117073 L97.2809756,75.1765854 C93.6178862,81.5869919 88.9973984,84.7921951 83.4195122,84.7921951 Z M156.847805,90.9112195 L181.573659,90.7863415 C181.906667,90.7863415 182.281301,90.5782114 182.697561,90.1619512 L182.697561,90.1619512 L182.697561,87.9141463 C182.697561,87.3313821 182.239675,87.04 181.323902,87.04 C177.827317,87.04 173.414959,83.8764228 168.086829,77.5492683 C165.173008,74.135935 161.343415,69.3073171 156.598049,63.0634146 L156.598049,63.0634146 L161.218537,58.3180488 C167.462439,51.8243902 171.083902,48.0780488 172.082927,47.0790244 C174.996748,44.2484553 177.660813,42.8331707 180.075122,42.8331707 C180.907642,42.8331707 181.323902,42.5834146 181.323902,42.0839024 L181.323902,42.0839024 L181.323902,39.9609756 C181.323902,39.4614634 181.03252,39.2117073 180.449756,39.2117073 L180.449756,39.2117073 L161.718049,39.2117073 C160.469268,39.2117073 159.844878,39.5863415 159.844878,40.3356098 L159.844878,40.3356098 L159.844878,41.9590244 C159.844878,42.5417886 160.302764,42.8331707 161.218537,42.8331707 C164.132358,42.8331707 165.589268,43.540813 165.589268,44.9560976 C165.589268,46.038374 161.759675,50.9502439 154.100488,59.6917073 L154.100488,59.6917073 L152.601951,58.0682927 C149.521626,54.2386992 147.232195,51.220813 145.733659,49.0146341 C144.235122,46.8084553 143.485854,45.4139837 143.485854,44.8312195 C143.485854,43.499187 144.77626,42.8331707 147.357073,42.8331707 C148.272846,42.8331707 148.813984,42.6666667 148.980488,42.3336585 C149.06374,42.1671545 149.105366,41.4178862 149.105366,40.0858537 C149.105366,39.5030894 148.689106,39.2117073 147.856585,39.2117073 L147.856585,39.2117073 L123.005854,39.2117073 L123.005854,39.2117073 L122.756098,39.4614634 C122.589593,39.6279675 122.506341,39.7944715 122.506341,39.9609756 L122.506341,39.9609756 L122.506341,41.9590244 C122.506341,42.5417886 122.756098,42.8331707 123.25561,42.8331707 C127.001951,42.8331707 131.331057,45.6637398 136.242927,51.324878 C138.906992,54.4052033 142.528455,58.900813 147.107317,64.8117073 L147.107317,64.8117073 L142.486829,69.9317073 C135.826667,77.1746341 131.310244,81.836748 128.937561,83.9180488 C126.564878,85.9993496 124.546016,87.04 122.880976,87.04 C121.798699,87.04 121.257561,87.3313821 121.257561,87.9141463 L121.257561,87.9141463 L121.257561,89.7873171 C121.257561,90.5365854 121.715447,90.9112195 122.63122,90.9112195 L122.63122,90.9112195 L142.986341,90.7863415 C143.569106,90.7863415 143.860488,89.8705691 143.860488,88.0390244 C143.860488,87.3730081 143.152846,87.04 141.737561,87.04 C138.82374,87.04 137.366829,86.2907317 137.366829,84.7921951 C137.366829,83.7931707 137.99122,82.4611382 139.24,80.7960976 C140.48878,79.1310569 143.360976,75.6760976 147.856585,70.4312195 L147.856585,70.4312195 L149.729756,68.3082927 L152.352195,71.68 C155.599024,75.7593496 157.680325,78.3817886 158.596098,79.5473171 C160.843902,82.5443902 161.967805,84.3343089 161.967805,84.9170732 C161.967805,85.7495935 161.759675,86.2907317 161.343415,86.5404878 C161.176911,86.6237398 160.34439,86.6653659 158.845854,86.6653659 C158.179837,86.6653659 157.555447,86.8110569 156.972683,87.102439 C156.389919,87.3938211 156.098537,88.2887805 156.098537,89.7873171 C156.098537,89.9538211 156.348293,90.3284553 156.847805,90.9112195 L156.847805,90.9112195 Z" id="dx" fill-opacity="0.823851259" fill="#2E2E2E"></path>
            <polygon id="&gt;" fill="#5B1F5C" points="203.925854 105.646829 233.022439 52.6985366 203.676098 1.42108547e-14 198.306341 2.74731707 226.403902 52.8234146 198.805854 103.02439"></polygon>
        </g>
    </g>
</svg>